<?xml version="1.0" encoding="utf-8"?>
<!-- Generator: Adobe Illustrator 16.0.0, SVG Export Plug-In . SVG Version: 6.00 Build 0)  -->
<!DOCTYPE svg PUBLIC "-//W3C//DTD SVG 1.1//EN" "http://www.w3.org/Graphics/SVG/1.1/DTD/svg11.dtd">
<svg version="1.1"
	 id="svg2" xmlns:dc="http://purl.org/dc/elements/1.1/" xmlns:cc="http://creativecommons.org/ns#" xmlns:rdf="http://www.w3.org/1999/02/22-rdf-syntax-ns#" xmlns:svg="http://www.w3.org/2000/svg" xmlns:sodipodi="http://sodipodi.sourceforge.net/DTD/sodipodi-0.dtd" xmlns:inkscape="http://www.inkscape.org/namespaces/inkscape" sodipodi:docname="logo.svg" inkscape:version="0.48.3.1 r9886"
	 xmlns="http://www.w3.org/2000/svg" xmlns:xlink="http://www.w3.org/1999/xlink" x="0px" y="0px" width="329.162px"
	 height="38.518px" viewBox="0 0 329.162 38.518" enable-background="new 0 0 329.162 38.518" xml:space="preserve">
<sodipodi:namedview  fit-margin-left="0" fit-margin-top="0" showguides="true" showgrid="false" inkscape:cy="-77.342085" inkscape:cx="373.28125" inkscape:zoom="0.70000001" borderopacity="1.0" bordercolor="#666666" pagecolor="#ffffff" id="base" fit-margin-bottom="0" fit-margin-right="0" inkscape:window-maximized="0" inkscape:window-y="17" inkscape:window-x="0" inkscape:window-height="779" inkscape:current-layer="layer1" inkscape:document-units="px" inkscape:pageopacity="1" inkscape:window-width="636" inkscape:guide-bbox="true" inkscape:pageshadow="2">
	</sodipodi:namedview>
<g id="layer1" transform="translate(-1.71875,-221.40515)" inkscape:label="Layer 1" inkscape:groupmode="layer">
	<path id="path3027" inkscape:connector-curvature="0" fill="#0000FF" d="M21.035,230.604v5.703
		c-0.951-0.65-1.908-1.133-2.871-1.445c-0.951-0.313-1.94-0.469-2.969-0.469c-1.953,0-3.477,0.573-4.57,1.719
		c-1.081,1.133-1.621,2.722-1.621,4.766c0,2.045,0.541,3.64,1.621,4.785c1.094,1.133,2.617,1.699,4.57,1.699
		c1.094,0,2.129-0.162,3.105-0.488c0.99-0.325,1.901-0.807,2.734-1.445v5.723c-1.094,0.404-2.207,0.703-3.34,0.898
		c-1.12,0.209-2.246,0.313-3.379,0.313c-3.945,0-7.031-1.009-9.258-3.027c-2.227-2.031-3.34-4.85-3.34-8.457
		c0-3.606,1.113-6.419,3.34-8.438c2.227-2.031,5.313-3.047,9.258-3.047c1.146,0,2.272,0.104,3.379,0.313
		C18.815,229.901,19.928,230.201,21.035,230.604"/>
	<path id="path3029" inkscape:connector-curvature="0" fill="#0000FF" d="M35.899,234.393c-1.549,0-2.734,0.561-3.555,1.68
		c-0.807,1.107-1.211,2.709-1.211,4.805c0,2.097,0.404,3.705,1.211,4.824c0.82,1.107,2.005,1.66,3.555,1.66
		c1.523,0,2.689-0.553,3.496-1.66c0.808-1.119,1.211-2.728,1.211-4.824c0-2.096-0.403-3.697-1.211-4.805
		C38.588,234.954,37.423,234.393,35.899,234.393 M35.899,229.393c3.763,0,6.699,1.016,8.809,3.047
		c2.123,2.031,3.184,4.844,3.184,8.438s-1.061,6.406-3.184,8.438c-2.109,2.031-5.045,3.047-8.809,3.047
		c-3.776,0-6.731-1.016-8.867-3.047c-2.122-2.031-3.184-4.844-3.184-8.438s1.062-6.406,3.184-8.438
		C29.168,230.409,32.124,229.393,35.899,229.393"/>
	<path id="path3031" inkscape:connector-curvature="0" fill="#0000FF" d="M73.361,238.475v13.32H66.33v-2.168V241.6
		c0-1.888-0.045-3.189-0.137-3.906c-0.078-0.716-0.221-1.243-0.43-1.582c-0.273-0.455-0.645-0.807-1.113-1.055
		c-0.469-0.26-1.002-0.391-1.602-0.391c-1.458,0-2.604,0.566-3.438,1.699c-0.833,1.12-1.25,2.676-1.25,4.668v10.762h-6.992v-21.875
		h6.992v3.203c1.055-1.275,2.175-2.213,3.359-2.813c1.185-0.611,2.494-0.918,3.926-0.918c2.526,0,4.44,0.775,5.742,2.324
		C72.704,233.267,73.361,235.52,73.361,238.475"/>
	<path id="path3033" inkscape:connector-curvature="0" fill="#0000FF" d="M100.257,238.475v13.32h-7.031v-2.168V241.6
		c0-1.888-0.046-3.189-0.137-3.906c-0.078-0.716-0.222-1.243-0.43-1.582c-0.273-0.455-0.645-0.807-1.113-1.055
		c-0.469-0.26-1.003-0.391-1.602-0.391c-1.458,0-2.604,0.566-3.438,1.699c-0.833,1.12-1.25,2.676-1.25,4.668v10.762h-6.992v-21.875
		h6.992v3.203c1.055-1.275,2.174-2.213,3.359-2.813c1.185-0.611,2.493-0.918,3.926-0.918c2.526,0,4.44,0.775,5.742,2.324
		C99.6,233.267,100.257,235.52,100.257,238.475"/>
	<path id="path3035" inkscape:connector-curvature="0" fill="#0000FF" d="M126.997,240.799v1.992h-16.348
		c0.169,1.641,0.762,2.871,1.777,3.691s2.435,1.23,4.258,1.23c1.471,0,2.975-0.215,4.512-0.645c1.549-0.442,3.138-1.106,4.766-1.992
		v5.391c-1.654,0.625-3.307,1.094-4.961,1.406c-1.654,0.326-3.307,0.488-4.961,0.488c-3.958,0-7.038-1.002-9.238-3.008
		c-2.188-2.018-3.281-4.844-3.281-8.477c0-3.567,1.074-6.373,3.223-8.418c2.162-2.044,5.13-3.066,8.906-3.066
		c3.438,0,6.185,1.035,8.242,3.105C125.961,234.569,126.997,237.337,126.997,240.799 M119.809,238.475
		c0-1.328-0.391-2.396-1.172-3.203c-0.768-0.82-1.777-1.23-3.027-1.23c-1.354,0-2.455,0.385-3.301,1.152
		c-0.846,0.756-1.374,1.85-1.582,3.281H119.809"/>
	<path id="path3037" inkscape:connector-curvature="0" fill="#0000FF" d="M148.326,230.604v5.703
		c-0.951-0.65-1.908-1.133-2.871-1.445c-0.951-0.313-1.94-0.469-2.969-0.469c-1.953,0-3.477,0.573-4.57,1.719
		c-1.081,1.133-1.621,2.722-1.621,4.766c0,2.045,0.541,3.64,1.621,4.785c1.094,1.133,2.617,1.699,4.57,1.699
		c1.094,0,2.129-0.162,3.105-0.488c0.99-0.325,1.901-0.807,2.734-1.445v5.723c-1.094,0.404-2.207,0.703-3.34,0.898
		c-1.12,0.209-2.246,0.313-3.379,0.313c-3.945,0-7.031-1.009-9.258-3.027c-2.227-2.031-3.34-4.85-3.34-8.457
		c0-3.606,1.113-6.419,3.34-8.438c2.227-2.031,5.313-3.047,9.258-3.047c1.146,0,2.272,0.104,3.379,0.313
		C146.105,229.901,147.219,230.201,148.326,230.604"/>
	<path id="path3039" inkscape:connector-curvature="0" fill="#0000FF" d="M160.417,223.71v6.211h7.208v5h-7.208v9.277
		c0,1.016,0.202,1.706,0.605,2.07c0.404,0.352,1.205,0.527,2.402,0.527h3.594v5h-5.997c-2.76,0-4.72-0.572-5.879-1.719
		c-1.146-1.158-1.719-3.118-1.719-5.879v-9.277h-3.477v-5h3.477v-6.211H160.417"/>
	<path id="path3042" inkscape:connector-curvature="0" fill="#FF0000" d="M188.71,230.604v5.313
		c-1.498-0.625-2.943-1.094-4.336-1.406s-2.709-0.469-3.945-0.469c-1.328,0-2.318,0.17-2.969,0.508
		c-0.639,0.326-0.957,0.834-0.957,1.523c0,0.561,0.24,0.99,0.723,1.289c0.494,0.3,1.373,0.521,2.637,0.664l1.23,0.176
		c3.58,0.456,5.989,1.205,7.227,2.246c1.236,1.042,1.855,2.676,1.855,4.902c0,2.331-0.859,4.082-2.578,5.254
		s-4.284,1.758-7.695,1.758c-1.445,0-2.943-0.117-4.492-0.352c-1.537-0.221-3.119-0.56-4.746-1.016v-5.313
		c1.393,0.678,2.818,1.186,4.277,1.523c1.471,0.339,2.963,0.508,4.473,0.508c1.367,0,2.396-0.188,3.086-0.566
		c0.689-0.377,1.035-0.938,1.035-1.68c0-0.625-0.241-1.087-0.723-1.387c-0.469-0.313-1.413-0.553-2.832-0.723l-1.23-0.156
		c-3.111-0.391-5.293-1.113-6.543-2.168s-1.875-2.656-1.875-4.805c0-2.317,0.795-4.036,2.383-5.156
		c1.588-1.119,4.023-1.68,7.305-1.68c1.289,0,2.643,0.098,4.063,0.293C185.5,229.881,187.043,230.188,188.71,230.604"/>
	<path id="path3044" inkscape:connector-curvature="0" fill="#FF0000" d="M193.828,229.921h6.992v21.875h-6.992V229.921
		 M193.828,221.405h6.992v5.703h-6.992V221.405"/>
	<path id="path3046" inkscape:connector-curvature="0" fill="#FF0000" d="M211.485,240.604l-7.891-10.684h7.402l4.473,6.484
		l4.531-6.484h7.402l-7.891,10.645l8.281,11.23h-7.402l-4.922-6.914l-4.863,6.914h-7.402L211.485,240.604"/>
	<path id="path3049" inkscape:connector-curvature="0" d="M229.828,259.922c4.64-2.681,6.64-5.32,6.64-8.761
		c0-2.76-1.64-4.64-4.039-4.64c-2,0-3.32,1.32-3.32,3.32c0,1.84,1.199,3.12,2.92,3.12c0.2,0,0.439,0,0.68-0.04
		c0.12-0.04,0.2-0.04,0.28-0.04c0.44,0,0.76,0.359,0.76,0.88c0,1.52-1.36,3.2-4.36,5.28L229.828,259.922"/>
	<path id="path3051" inkscape:connector-curvature="0" d="M273.068,243.642h-1.16c-1.319,3.12-2.12,4.36-3.521,5.64
		c-1.639,1.48-3.879,2.2-6.959,2.2c-2.44,0-3.2-0.52-3.2-2.24v-18.88c0-3,0.56-3.52,4.04-3.68v-1h-13.961v1
		c2.721,0.16,3.441,0.8,3.441,2.84v19.36c0,2.04-0.521,2.479-3.441,2.84v1h23.121L273.068,243.642"/>
	<path id="path3053" inkscape:connector-curvature="0" d="M289.987,225.083c-8.36,0-14.32,5.92-14.32,14.239
		c0,8.28,5.88,14.16,14.16,14.16c8.279,0,14.16-5.92,14.16-14.2C303.987,231.122,298.026,225.083,289.987,225.083 M289.947,226.402
		c4.399,0,6.96,4.84,6.96,13.16c0,8.2-2.48,12.6-7.08,12.6s-7.08-4.399-7.08-12.479
		C282.747,231.043,285.267,226.402,289.947,226.402"/>
	<path id="path3055" inkscape:connector-curvature="0" d="M330.881,243.642h-1.16c-1.32,3.12-2.12,4.36-3.52,5.64
		c-1.641,1.48-3.881,2.2-6.96,2.2c-2.44,0-3.2-0.52-3.2-2.24v-18.88c0-3,0.56-3.52,4.04-3.68v-1H306.12v1
		c2.721,0.16,3.44,0.8,3.44,2.84v19.36c0,2.04-0.52,2.479-3.44,2.84v1h23.121L330.881,243.642"/>
</g>
</svg>
